<svg width="24" height="24" viewBox="0 0 24 24" fill="none" xmlns="http://www.w3.org/2000/svg">
<path d="M4.79999 6.59998C4.79999 5.80433 5.11606 5.04126 5.67867 4.47866C6.24128 3.91605 7.00434 3.59998 7.79999 3.59998H18.6C19.3956 3.59998 20.1587 3.91605 20.7213 4.47866C21.2839 5.04126 21.6 5.80433 21.6 6.59998V15C21.6 15.7956 21.2839 16.5587 20.7213 17.1213C20.1587 17.6839 19.3956 18 18.6 18H7.79999C7.00434 18 6.24128 17.6839 5.67867 17.1213C5.11606 16.5587 4.79999 15.7956 4.79999 15V6.59998ZM12.8952 11.9172L5.99999 8.35318V15C5.99999 15.4774 6.18964 15.9352 6.5272 16.2728C6.86477 16.6103 7.3226 16.8 7.79999 16.8H18.6C19.0774 16.8 19.5352 16.6103 19.8728 16.2728C20.2104 15.9352 20.4 15.4774 20.4 15V8.35558L13.5048 11.9172L13.4064 11.9628C13.3231 11.9935 13.2341 12.0053 13.1457 11.9974C13.0573 11.9895 12.9717 11.9621 12.8952 11.9172ZM18.6 4.79998H7.79999C7.3226 4.79998 6.86477 4.98962 6.5272 5.32718C6.18964 5.66475 5.99999 6.12259 5.99999 6.59998V6.96118L13.2 10.704L20.4 6.96238V6.59998C20.4 6.12259 20.2104 5.66475 19.8728 5.32718C19.5352 4.98962 19.0774 4.79998 18.6 4.79998ZM16.2 20.4C17.1816 20.4 18.0528 19.9284 18.6 19.2H7.79999C6.68608 19.2 5.6178 18.7575 4.83015 17.9698C4.04249 17.1822 3.59999 16.1139 3.59999 15V6.59998C2.87159 7.14718 2.39999 8.01838 2.39999 8.99998V15C2.39999 16.4321 2.96892 17.8057 3.98162 18.8184C4.99431 19.831 6.36783 20.4 7.79999 20.4H16.2Z" fill="black"/>
</svg>
