<svg width="24" height="24" viewBox="0 0 24 24" fill="none" xmlns="http://www.w3.org/2000/svg">
<path d="M7.842 2.53917C6.594 2.22237 5.286 2.35677 4.2612 2.93037C3.2172 3.51357 2.4852 4.54797 2.4492 5.93157C2.394 8.09397 2.8944 10.9956 4.8816 14.4012C6.8436 17.7648 9.0096 19.7808 10.8072 20.9784C11.9424 21.7356 13.1964 21.756 14.268 21.2628C15.324 20.7768 16.1808 19.806 16.626 18.6024C16.7368 18.303 16.7813 17.9832 16.7564 17.665C16.7316 17.3467 16.6379 17.0377 16.482 16.7592L15.3372 14.7168C14.9853 14.0882 14.4189 13.6072 13.7416 13.3617C13.0643 13.1163 12.3213 13.1228 11.6484 13.38L10.8492 13.686C10.4616 13.8336 10.1052 13.7652 9.9036 13.566C9.2256 12.9 8.7408 11.9964 8.5212 11.022C8.4516 10.7148 8.5932 10.3524 8.9316 10.0968L9.6528 9.55197C10.2358 9.11201 10.6384 8.47445 10.7848 7.75887C10.9313 7.04328 10.8117 6.29885 10.4484 5.66517L9.282 3.63117C9.12747 3.36189 8.92035 3.12644 8.67297 2.93884C8.42558 2.75124 8.14299 2.61532 7.842 2.53917ZM3.6492 5.96397C3.6732 5.03517 4.1436 4.37157 4.8468 3.97797C5.5692 3.57357 6.5556 3.44997 7.5468 3.70197C7.69204 3.73866 7.8284 3.80421 7.94777 3.89471C8.06714 3.98522 8.16707 4.09883 8.2416 4.22877L9.4068 6.26277C9.62473 6.64282 9.69658 7.0893 9.60888 7.51854C9.52118 7.94777 9.27995 8.33028 8.9304 8.59438L8.2092 9.13917C7.5852 9.60958 7.1532 10.416 7.35 11.286C7.6164 12.4644 8.2056 13.5816 9.0624 14.4228C9.6888 15.0372 10.5816 15.0732 11.2776 14.8068L12.0768 14.5008C12.4806 14.3462 12.9265 14.3422 13.333 14.4893C13.7396 14.6365 14.0796 14.9251 14.2908 15.3024L15.4344 17.346C15.5784 17.6028 15.6024 17.91 15.5004 18.186C15.1524 19.128 14.4984 19.8348 13.7664 20.172C13.05 20.502 12.24 20.4924 11.4732 19.98C9.828 18.8832 7.7892 17.0028 5.9172 13.7964C4.044 10.5804 3.6 7.89957 3.6504 5.96397H3.6492ZM15.2916 2.47437C15.1525 2.39704 14.9884 2.37812 14.8354 2.42178C14.6824 2.46543 14.5529 2.5681 14.4756 2.70717C14.3983 2.84625 14.3793 3.01036 14.423 3.16339C14.4667 3.31642 14.5693 3.44584 14.7084 3.52317L15.1692 3.77997C16.6087 4.57966 17.8332 5.71599 18.7381 7.09186C19.6429 8.46773 20.2012 10.0422 20.3652 11.6808L20.4036 12.0588C20.4081 12.1397 20.429 12.2188 20.465 12.2914C20.5009 12.3641 20.5512 12.4287 20.6128 12.4813C20.6744 12.534 20.746 12.5736 20.8233 12.5978C20.9007 12.622 20.9821 12.6303 21.0627 12.6222C21.1433 12.6141 21.2215 12.5897 21.2924 12.5506C21.3634 12.5115 21.4257 12.4584 21.4756 12.3945C21.5254 12.3306 21.5618 12.2573 21.5826 12.179C21.6034 12.1007 21.6081 12.019 21.5964 11.9388L21.5592 11.562C21.3761 9.73028 20.7522 7.97017 19.7407 6.43212C18.7293 4.89406 17.3604 3.62382 15.7512 2.72997L15.2916 2.47437ZM13.8852 5.69037C13.9672 5.55402 14.0999 5.4558 14.2543 5.41732C14.4087 5.37884 14.572 5.40325 14.7084 5.48517L14.8572 5.57397C15.8258 6.15472 16.6568 6.93888 17.2927 7.87227C17.9285 8.80565 18.3541 9.86599 18.54 10.98L18.5928 11.3004C18.6079 11.3789 18.6071 11.4597 18.5905 11.538C18.574 11.6163 18.5419 11.6904 18.4962 11.7561C18.4505 11.8218 18.3922 11.8777 18.3246 11.9205C18.257 11.9633 18.1815 11.9922 18.1026 12.0054C18.0237 12.0186 17.9429 12.0159 17.8651 11.9974C17.7872 11.9789 17.7139 11.9451 17.6493 11.8979C17.5847 11.8506 17.5303 11.7909 17.4891 11.7223C17.4479 11.6537 17.4209 11.5776 17.4096 11.4984L17.3556 11.178C17.1986 10.2355 16.8388 9.33844 16.3012 8.54865C15.7635 7.75886 15.0608 7.09522 14.2416 6.60357L14.0928 6.51357C14.0252 6.47309 13.9662 6.41967 13.9192 6.35638C13.8723 6.2931 13.8382 6.22118 13.8191 6.14473C13.7999 6.06829 13.796 5.98881 13.8075 5.91086C13.8191 5.8329 13.8459 5.75798 13.8864 5.69037H13.8852Z" fill="black"/>
</svg>
